<?xml version="1.0" ?><!DOCTYPE svg  PUBLIC '-//W3C//DTD SVG 1.1//EN'  'http://www.w3.org/Graphics/SVG/1.1/DTD/svg11.dtd'><svg enable-background="new 0 0 64 64" height="64px" id="Layer_1" version="1.1" viewBox="0 0 64 64" width="64px" xml:space="preserve" xmlns="http://www.w3.org/2000/svg" xmlns:xlink="http://www.w3.org/1999/xlink"><path d="M52.948,7.742h-2.12V6.138c0-3.109-2.529-5.638-5.639-5.638H11.052c-3.109,0-5.639,2.529-5.639,5.638v44.483  c0,3.108,2.529,5.638,5.639,5.638h2.12v1.604c0,3.108,2.529,5.638,5.639,5.638h34.138c3.109,0,5.639-2.529,5.639-5.638V13.379  C58.587,10.271,56.058,7.742,52.948,7.742z M11.052,53.259c-1.455,0-2.639-1.184-2.639-2.638V6.138c0-1.455,1.184-2.638,2.639-2.638  h34.138c1.455,0,2.639,1.184,2.639,2.638v1.604H18.81c-3.109,0-5.639,2.529-5.639,5.638v39.879H11.052z M55.587,57.862  c0,1.454-1.184,2.638-2.639,2.638H18.81c-1.455,0-2.639-1.184-2.639-2.638V13.379c0-1.455,1.184-2.638,2.639-2.638h34.138  c1.455,0,2.639,1.183,2.639,2.638V57.862z"/><path d="M48.035,17.569H23.724c-0.829,0-1.5,0.671-1.5,1.5s0.671,1.5,1.5,1.5h24.312c0.828,0,1.5-0.671,1.5-1.5  S48.863,17.569,48.035,17.569z"/><path d="M48.035,25.845H23.724c-0.829,0-1.5,0.671-1.5,1.5s0.671,1.5,1.5,1.5h24.312c0.828,0,1.5-0.671,1.5-1.5  S48.863,25.845,48.035,25.845z"/><path d="M48.035,34.121H23.724c-0.829,0-1.5,0.672-1.5,1.5s0.671,1.5,1.5,1.5h24.312c0.828,0,1.5-0.672,1.5-1.5  S48.863,34.121,48.035,34.121z"/><path d="M48.035,42.397H23.724c-0.829,0-1.5,0.672-1.5,1.5s0.671,1.5,1.5,1.5h24.312c0.828,0,1.5-0.672,1.5-1.5  S48.863,42.397,48.035,42.397z"/><path d="M48.035,50.673H23.724c-0.829,0-1.5,0.672-1.5,1.5s0.671,1.5,1.5,1.5h24.312c0.828,0,1.5-0.672,1.5-1.5  S48.863,50.673,48.035,50.673z"/></svg>